<mxfile host="Electron" modified="2023-12-19T15:02:49.610Z" agent="Mozilla/5.0 (Macintosh; Intel Mac OS X 10_15_7) AppleWebKit/537.36 (KHTML, like Gecko) draw.io/22.1.2 Chrome/114.0.5735.289 Electron/25.9.4 Safari/537.36" etag="qNv-TCbjRsPaRvdFUvdL" version="22.1.2" type="device">
  <diagram name="Page-1" id="0ciU3ZzYEzsX3uOXQf9y">
    <mxGraphModel dx="1173" dy="808" grid="0" gridSize="10" guides="1" tooltips="1" connect="1" arrows="1" fold="1" page="0" pageScale="1" pageWidth="1100" pageHeight="850" math="0" shadow="0">
      <root>
        <mxCell id="0" />
        <mxCell id="1" parent="0" />
        <mxCell id="UKk3BZXmkDFEpoiNczB_-30" value="" style="ellipse;whiteSpace=wrap;html=1;aspect=fixed;fillColor=#647687;fontColor=#ffffff;strokeColor=#314354;" vertex="1" parent="1">
          <mxGeometry x="30" y="40" width="790" height="790" as="geometry" />
        </mxCell>
        <mxCell id="UKk3BZXmkDFEpoiNczB_-4" value="" style="ellipse;whiteSpace=wrap;html=1;aspect=fixed;fillColor=#6d8764;strokeColor=#3A5431;fontColor=#ffffff;" vertex="1" parent="1">
          <mxGeometry x="140" y="150" width="570" height="570" as="geometry" />
        </mxCell>
        <mxCell id="UKk3BZXmkDFEpoiNczB_-3" value="" style="ellipse;whiteSpace=wrap;html=1;aspect=fixed;fillColor=#f0a30a;strokeColor=#BD7000;fontColor=#000000;" vertex="1" parent="1">
          <mxGeometry x="250" y="260" width="350" height="350" as="geometry" />
        </mxCell>
        <mxCell id="UKk3BZXmkDFEpoiNczB_-1" value="" style="ellipse;whiteSpace=wrap;html=1;aspect=fixed;labelPosition=center;verticalLabelPosition=middle;align=center;verticalAlign=middle;fontSize=20;fillColor=#1ba1e2;strokeColor=#006EAF;fontColor=#ffffff;" vertex="1" parent="1">
          <mxGeometry x="330" y="340" width="190" height="190" as="geometry" />
        </mxCell>
        <mxCell id="UKk3BZXmkDFEpoiNczB_-17" value="&lt;h2&gt;Domain Model&lt;/h2&gt;" style="text;html=1;strokeColor=none;fillColor=none;align=center;verticalAlign=middle;whiteSpace=wrap;rounded=0;fontStyle=4" vertex="1" parent="1">
          <mxGeometry x="395" y="380" width="60" height="30" as="geometry" />
        </mxCell>
        <mxCell id="UKk3BZXmkDFEpoiNczB_-18" value="&lt;h3&gt;Author&lt;/h3&gt;" style="text;html=1;strokeColor=none;fillColor=none;align=center;verticalAlign=middle;whiteSpace=wrap;rounded=0;" vertex="1" parent="1">
          <mxGeometry x="395" y="420" width="60" height="30" as="geometry" />
        </mxCell>
        <mxCell id="UKk3BZXmkDFEpoiNczB_-19" value="&lt;h3&gt;Cheep&lt;/h3&gt;" style="text;html=1;strokeColor=none;fillColor=none;align=center;verticalAlign=middle;whiteSpace=wrap;rounded=0;" vertex="1" parent="1">
          <mxGeometry x="395" y="450" width="60" height="30" as="geometry" />
        </mxCell>
        <mxCell id="UKk3BZXmkDFEpoiNczB_-20" value="&lt;h3&gt;Like&lt;/h3&gt;" style="text;html=1;strokeColor=none;fillColor=none;align=center;verticalAlign=middle;whiteSpace=wrap;rounded=0;" vertex="1" parent="1">
          <mxGeometry x="395" y="480" width="60" height="30" as="geometry" />
        </mxCell>
        <mxCell id="UKk3BZXmkDFEpoiNczB_-21" value="&lt;h2&gt;Domain Services&lt;/h2&gt;" style="text;html=1;strokeColor=none;fillColor=none;align=center;verticalAlign=middle;whiteSpace=wrap;rounded=0;fontStyle=4;labelBorderColor=none;fontColor=#FFFFFF;" vertex="1" parent="1">
          <mxGeometry x="395" y="280" width="60" height="30" as="geometry" />
        </mxCell>
        <mxCell id="UKk3BZXmkDFEpoiNczB_-22" value="&lt;h3&gt;AuthorDto&lt;/h3&gt;" style="text;html=1;strokeColor=none;fillColor=none;align=center;verticalAlign=middle;whiteSpace=wrap;rounded=0;rotation=45;" vertex="1" parent="1">
          <mxGeometry x="490" y="340" width="60" height="30" as="geometry" />
        </mxCell>
        <mxCell id="UKk3BZXmkDFEpoiNczB_-23" value="&lt;h3&gt;CheepDto&lt;/h3&gt;" style="text;html=1;strokeColor=none;fillColor=none;align=center;verticalAlign=middle;whiteSpace=wrap;rounded=0;rotation=-45;" vertex="1" parent="1">
          <mxGeometry x="300" y="340" width="60" height="30" as="geometry" />
        </mxCell>
        <mxCell id="UKk3BZXmkDFEpoiNczB_-24" value="&lt;h3&gt;IAuthorRepository&lt;/h3&gt;" style="text;html=1;strokeColor=none;fillColor=none;align=center;verticalAlign=middle;whiteSpace=wrap;rounded=0;rotation=-45;" vertex="1" parent="1">
          <mxGeometry x="490" y="500" width="60" height="30" as="geometry" />
        </mxCell>
        <mxCell id="UKk3BZXmkDFEpoiNczB_-25" value="&lt;h3&gt;ICheepRepository&lt;/h3&gt;" style="text;html=1;strokeColor=none;fillColor=none;align=center;verticalAlign=middle;whiteSpace=wrap;rounded=0;rotation=45;" vertex="1" parent="1">
          <mxGeometry x="300" y="500" width="60" height="30" as="geometry" />
        </mxCell>
        <mxCell id="UKk3BZXmkDFEpoiNczB_-26" value="&lt;h2&gt;Application Services&lt;/h2&gt;" style="text;html=1;strokeColor=none;fillColor=none;align=center;verticalAlign=middle;whiteSpace=wrap;rounded=0;fontStyle=4" vertex="1" parent="1">
          <mxGeometry x="395" y="170" width="60" height="30" as="geometry" />
        </mxCell>
        <mxCell id="UKk3BZXmkDFEpoiNczB_-27" value="&lt;h3&gt;ChirpContext&lt;/h3&gt;" style="text;html=1;strokeColor=none;fillColor=none;align=center;verticalAlign=middle;whiteSpace=wrap;rounded=0;" vertex="1" parent="1">
          <mxGeometry x="395" y="620" width="60" height="30" as="geometry" />
        </mxCell>
        <mxCell id="UKk3BZXmkDFEpoiNczB_-28" value="&lt;h3&gt;CheepRepository&lt;/h3&gt;" style="text;html=1;strokeColor=none;fillColor=none;align=center;verticalAlign=middle;whiteSpace=wrap;rounded=0;rotation=-45;" vertex="1" parent="1">
          <mxGeometry x="260" y="270" width="60" height="30" as="geometry" />
        </mxCell>
        <mxCell id="UKk3BZXmkDFEpoiNczB_-29" value="&lt;h3&gt;AuthorRepository&lt;/h3&gt;" style="text;html=1;strokeColor=none;fillColor=none;align=center;verticalAlign=middle;whiteSpace=wrap;rounded=0;rotation=45;" vertex="1" parent="1">
          <mxGeometry x="540" y="280" width="60" height="30" as="geometry" />
        </mxCell>
        <mxCell id="UKk3BZXmkDFEpoiNczB_-31" value="&lt;h2&gt;Presentation&lt;/h2&gt;" style="text;html=1;strokeColor=none;fillColor=none;align=center;verticalAlign=middle;whiteSpace=wrap;rounded=0;fontStyle=4" vertex="1" parent="1">
          <mxGeometry x="395" y="50" width="60" height="30" as="geometry" />
        </mxCell>
        <mxCell id="UKk3BZXmkDFEpoiNczB_-32" value="&lt;h2&gt;Tests&lt;/h2&gt;" style="text;html=1;strokeColor=none;fillColor=none;align=center;verticalAlign=middle;whiteSpace=wrap;rounded=0;fontStyle=4" vertex="1" parent="1">
          <mxGeometry x="100" y="570" width="60" height="30" as="geometry" />
        </mxCell>
        <mxCell id="UKk3BZXmkDFEpoiNczB_-33" value="&lt;h2&gt;Infrastucture&lt;/h2&gt;" style="text;html=1;strokeColor=none;fillColor=none;align=center;verticalAlign=middle;whiteSpace=wrap;rounded=0;fontStyle=4" vertex="1" parent="1">
          <mxGeometry x="690" y="580" width="60" height="30" as="geometry" />
        </mxCell>
        <mxCell id="UKk3BZXmkDFEpoiNczB_-34" value="&lt;h3&gt;CheepService&lt;/h3&gt;" style="text;html=1;strokeColor=none;fillColor=none;align=center;verticalAlign=middle;whiteSpace=wrap;rounded=0;rotation=45;" vertex="1" parent="1">
          <mxGeometry x="240" y="560" width="60" height="30" as="geometry" />
        </mxCell>
        <mxCell id="UKk3BZXmkDFEpoiNczB_-35" value="&lt;h3&gt;AuthorService&lt;/h3&gt;" style="text;html=1;strokeColor=none;fillColor=none;align=center;verticalAlign=middle;whiteSpace=wrap;rounded=0;rotation=-45;" vertex="1" parent="1">
          <mxGeometry x="540" y="570" width="60" height="30" as="geometry" />
        </mxCell>
        <mxCell id="UKk3BZXmkDFEpoiNczB_-36" value="&lt;h3&gt;Migrations&lt;/h3&gt;" style="text;html=1;strokeColor=none;fillColor=none;align=center;verticalAlign=middle;whiteSpace=wrap;rounded=0;" vertex="1" parent="1">
          <mxGeometry x="660" y="640" width="60" height="30" as="geometry" />
        </mxCell>
        <mxCell id="UKk3BZXmkDFEpoiNczB_-37" value="&lt;h3&gt;DbInitializer&lt;/h3&gt;" style="text;html=1;strokeColor=none;fillColor=none;align=center;verticalAlign=middle;whiteSpace=wrap;rounded=0;" vertex="1" parent="1">
          <mxGeometry x="395" y="660" width="60" height="30" as="geometry" />
        </mxCell>
        <mxCell id="UKk3BZXmkDFEpoiNczB_-42" value="" style="endArrow=none;html=1;rounded=0;entryX=0;entryY=0;entryDx=0;entryDy=0;exitX=0;exitY=0;exitDx=0;exitDy=0;strokeColor=#000000;" edge="1" parent="1" source="UKk3BZXmkDFEpoiNczB_-4" target="UKk3BZXmkDFEpoiNczB_-30">
          <mxGeometry width="50" height="50" relative="1" as="geometry">
            <mxPoint x="130" y="240" as="sourcePoint" />
            <mxPoint x="180" y="190" as="targetPoint" />
          </mxGeometry>
        </mxCell>
        <mxCell id="UKk3BZXmkDFEpoiNczB_-43" value="" style="endArrow=none;html=1;rounded=0;entryX=1;entryY=0;entryDx=0;entryDy=0;exitX=1;exitY=0;exitDx=0;exitDy=0;strokeColor=#000000;" edge="1" parent="1" source="UKk3BZXmkDFEpoiNczB_-4" target="UKk3BZXmkDFEpoiNczB_-30">
          <mxGeometry width="50" height="50" relative="1" as="geometry">
            <mxPoint x="660" y="240" as="sourcePoint" />
            <mxPoint x="710" y="190" as="targetPoint" />
          </mxGeometry>
        </mxCell>
        <mxCell id="UKk3BZXmkDFEpoiNczB_-44" value="" style="endArrow=none;html=1;rounded=0;entryX=0.5;entryY=1;entryDx=0;entryDy=0;exitX=0.5;exitY=1;exitDx=0;exitDy=0;strokeColor=#080808;" edge="1" parent="1" source="UKk3BZXmkDFEpoiNczB_-30" target="UKk3BZXmkDFEpoiNczB_-4">
          <mxGeometry width="50" height="50" relative="1" as="geometry">
            <mxPoint x="390" y="800" as="sourcePoint" />
            <mxPoint x="440" y="750" as="targetPoint" />
          </mxGeometry>
        </mxCell>
        <mxCell id="UKk3BZXmkDFEpoiNczB_-45" value="&lt;h3&gt;Razor Pages&lt;/h3&gt;" style="text;html=1;strokeColor=none;fillColor=none;align=center;verticalAlign=middle;whiteSpace=wrap;rounded=0;" vertex="1" parent="1">
          <mxGeometry x="395" y="100" width="60" height="30" as="geometry" />
        </mxCell>
        <mxCell id="UKk3BZXmkDFEpoiNczB_-46" value="&lt;h3&gt;DB&lt;/h3&gt;" style="text;html=1;strokeColor=none;fillColor=none;align=center;verticalAlign=middle;whiteSpace=wrap;rounded=0;" vertex="1" parent="1">
          <mxGeometry x="680" y="610" width="60" height="30" as="geometry" />
        </mxCell>
        <mxCell id="UKk3BZXmkDFEpoiNczB_-47" value="" style="rounded=1;whiteSpace=wrap;html=1;" vertex="1" parent="1">
          <mxGeometry x="770" y="70" width="180" height="110" as="geometry" />
        </mxCell>
        <mxCell id="UKk3BZXmkDFEpoiNczB_-48" value="&lt;h3&gt;Legend&lt;/h3&gt;" style="text;html=1;strokeColor=none;fillColor=none;align=center;verticalAlign=middle;whiteSpace=wrap;rounded=0;" vertex="1" parent="1">
          <mxGeometry x="830" y="70" width="60" height="30" as="geometry" />
        </mxCell>
        <mxCell id="UKk3BZXmkDFEpoiNczB_-49" value="ChirpContext - DbContext used for accessing the DB" style="text;html=1;strokeColor=none;fillColor=none;align=left;verticalAlign=top;whiteSpace=wrap;rounded=0;" vertex="1" parent="1">
          <mxGeometry x="780" y="101" width="160" height="69" as="geometry" />
        </mxCell>
      </root>
    </mxGraphModel>
  </diagram>
</mxfile>
